<?xml version="1.0" standalone="no"?>
<svg xmlns:xlink="http://www.w3.org/1999/xlink" id="wave" style="transform:rotate(0deg); transition: 0.3s" viewBox="0 0 1440 100" version="1.1" xmlns="http://www.w3.org/2000/svg"><defs><linearGradient id="sw-gradient-0" x1="0" x2="0" y1="1" y2="0"><stop stop-color="rgba(0, 7, 23, 0.53)" offset="0%"/><stop stop-color="rgba(2, 13, 33, 1)" offset="100%"/></linearGradient></defs><path style="transform:translate(0, 0px); opacity:1" fill="url(#sw-gradient-0)" d="M0,60L10,58.3C20,57,40,53,60,58.3C80,63,100,77,120,81.7C140,87,160,83,180,80C200,77,220,73,240,65C260,57,280,43,300,45C320,47,340,63,360,71.7C380,80,400,80,420,81.7C440,83,460,87,480,76.7C500,67,520,43,540,28.3C560,13,580,7,600,16.7C620,27,640,53,660,61.7C680,70,700,60,720,48.3C740,37,760,23,780,30C800,37,820,63,840,63.3C860,63,880,37,900,23.3C920,10,940,10,960,13.3C980,17,1000,23,1020,35C1040,47,1060,63,1080,66.7C1100,70,1120,60,1140,55C1160,50,1180,50,1200,55C1220,60,1240,70,1260,63.3C1280,57,1300,33,1320,25C1340,17,1360,23,1380,31.7C1400,40,1420,50,1430,55L1440,60L1440,100L1430,100C1420,100,1400,100,1380,100C1360,100,1340,100,1320,100C1300,100,1280,100,1260,100C1240,100,1220,100,1200,100C1180,100,1160,100,1140,100C1120,100,1100,100,1080,100C1060,100,1040,100,1020,100C1000,100,980,100,960,100C940,100,920,100,900,100C880,100,860,100,840,100C820,100,800,100,780,100C760,100,740,100,720,100C700,100,680,100,660,100C640,100,620,100,600,100C580,100,560,100,540,100C520,100,500,100,480,100C460,100,440,100,420,100C400,100,380,100,360,100C340,100,320,100,300,100C280,100,260,100,240,100C220,100,200,100,180,100C160,100,140,100,120,100C100,100,80,100,60,100C40,100,20,100,10,100L0,100Z"/></svg>