<?xml version="1.0" standalone="no"?>
<svg xmlns:xlink="http://www.w3.org/1999/xlink" id="wave" style="transform:rotate(180deg); transition: 0.3s" viewBox="0 0 1440 100" version="1.1" xmlns="http://www.w3.org/2000/svg"><defs><linearGradient id="sw-gradient-0" x1="0" x2="0" y1="1" y2="0"><stop stop-color="rgba(25, 0, 42, 1)" offset="0%"/><stop stop-color="rgba(255, 255, 255, 0)" offset="100%"/></linearGradient></defs><path style="transform:translate(0, 0px); opacity:1" fill="url(#sw-gradient-0)" d="M0,80L12,78.3C24,77,48,73,72,63.3C96,53,120,37,144,40C168,43,192,67,216,65C240,63,264,37,288,33.3C312,30,336,50,360,63.3C384,77,408,83,432,78.3C456,73,480,57,504,46.7C528,37,552,33,576,31.7C600,30,624,30,648,35C672,40,696,50,720,45C744,40,768,20,792,21.7C816,23,840,47,864,48.3C888,50,912,30,936,23.3C960,17,984,23,1008,23.3C1032,23,1056,17,1080,26.7C1104,37,1128,63,1152,71.7C1176,80,1200,70,1224,70C1248,70,1272,80,1296,71.7C1320,63,1344,37,1368,25C1392,13,1416,17,1440,26.7C1464,37,1488,53,1512,51.7C1536,50,1560,30,1584,28.3C1608,27,1632,43,1656,50C1680,57,1704,53,1716,51.7L1728,50L1728,100L1716,100C1704,100,1680,100,1656,100C1632,100,1608,100,1584,100C1560,100,1536,100,1512,100C1488,100,1464,100,1440,100C1416,100,1392,100,1368,100C1344,100,1320,100,1296,100C1272,100,1248,100,1224,100C1200,100,1176,100,1152,100C1128,100,1104,100,1080,100C1056,100,1032,100,1008,100C984,100,960,100,936,100C912,100,888,100,864,100C840,100,816,100,792,100C768,100,744,100,720,100C696,100,672,100,648,100C624,100,600,100,576,100C552,100,528,100,504,100C480,100,456,100,432,100C408,100,384,100,360,100C336,100,312,100,288,100C264,100,240,100,216,100C192,100,168,100,144,100C120,100,96,100,72,100C48,100,24,100,12,100L0,100Z"/></svg>