<?xml version="1.0" standalone="no"?>
<svg xmlns:xlink="http://www.w3.org/1999/xlink" id="wave" style="transform:rotate(0deg); transition: 0.3s" viewBox="0 0 1440 100" version="1.1" xmlns="http://www.w3.org/2000/svg"><defs><linearGradient id="sw-gradient-0" x1="0" x2="0" y1="1" y2="0"><stop stop-color="rgba(26, 22, 106, 1)" offset="0%"/><stop stop-color="rgba(143.212, 141.021, 187.017, 1)" offset="100%"/></linearGradient></defs><path style="transform:translate(0, 0px); opacity:1" fill="url(#sw-gradient-0)" d="M0,90L13.3,75C26.7,60,53,30,80,26.7C106.7,23,133,47,160,53.3C186.7,60,213,50,240,53.3C266.7,57,293,73,320,76.7C346.7,80,373,70,400,58.3C426.7,47,453,33,480,31.7C506.7,30,533,40,560,50C586.7,60,613,70,640,70C666.7,70,693,60,720,50C746.7,40,773,30,800,25C826.7,20,853,20,880,31.7C906.7,43,933,67,960,75C986.7,83,1013,77,1040,71.7C1066.7,67,1093,63,1120,53.3C1146.7,43,1173,27,1200,18.3C1226.7,10,1253,10,1280,23.3C1306.7,37,1333,63,1360,76.7C1386.7,90,1413,90,1440,90C1466.7,90,1493,90,1520,85C1546.7,80,1573,70,1600,68.3C1626.7,67,1653,73,1680,63.3C1706.7,53,1733,27,1760,23.3C1786.7,20,1813,40,1840,43.3C1866.7,47,1893,33,1907,26.7L1920,20L1920,100L1906.7,100C1893.3,100,1867,100,1840,100C1813.3,100,1787,100,1760,100C1733.3,100,1707,100,1680,100C1653.3,100,1627,100,1600,100C1573.3,100,1547,100,1520,100C1493.3,100,1467,100,1440,100C1413.3,100,1387,100,1360,100C1333.3,100,1307,100,1280,100C1253.3,100,1227,100,1200,100C1173.3,100,1147,100,1120,100C1093.3,100,1067,100,1040,100C1013.3,100,987,100,960,100C933.3,100,907,100,880,100C853.3,100,827,100,800,100C773.3,100,747,100,720,100C693.3,100,667,100,640,100C613.3,100,587,100,560,100C533.3,100,507,100,480,100C453.3,100,427,100,400,100C373.3,100,347,100,320,100C293.3,100,267,100,240,100C213.3,100,187,100,160,100C133.3,100,107,100,80,100C53.3,100,27,100,13,100L0,100Z"/></svg>