<?xml version="1.0" standalone="no"?>
<svg xmlns:xlink="http://www.w3.org/1999/xlink" id="wave" style="transform:rotate(0deg); transition: 0.3s" viewBox="0 0 1440 100" version="1.1" xmlns="http://www.w3.org/2000/svg"><defs><linearGradient id="sw-gradient-0" x1="0" x2="0" y1="1" y2="0"><stop stop-color="rgba(26, 22, 106, 1)" offset="0%"/><stop stop-color="rgba(26, 22, 106, 1)" offset="100%"/></linearGradient></defs><path style="transform:translate(0, 0px); opacity:1" fill="url(#sw-gradient-0)" d="M0,60L10,60C20,60,40,60,60,53.3C80,47,100,33,120,31.7C140,30,160,40,180,48.3C200,57,220,63,240,60C260,57,280,43,300,36.7C320,30,340,30,360,40C380,50,400,70,420,76.7C440,83,460,77,480,65C500,53,520,37,540,40C560,43,580,67,600,65C620,63,640,37,660,25C680,13,700,17,720,23.3C740,30,760,40,780,48.3C800,57,820,63,840,66.7C860,70,880,70,900,66.7C920,63,940,57,960,53.3C980,50,1000,50,1020,53.3C1040,57,1060,63,1080,63.3C1100,63,1120,57,1140,46.7C1160,37,1180,23,1200,23.3C1220,23,1240,37,1260,36.7C1280,37,1300,23,1320,15C1340,7,1360,3,1380,16.7C1400,30,1420,60,1430,75L1440,90L1440,100L1430,100C1420,100,1400,100,1380,100C1360,100,1340,100,1320,100C1300,100,1280,100,1260,100C1240,100,1220,100,1200,100C1180,100,1160,100,1140,100C1120,100,1100,100,1080,100C1060,100,1040,100,1020,100C1000,100,980,100,960,100C940,100,920,100,900,100C880,100,860,100,840,100C820,100,800,100,780,100C760,100,740,100,720,100C700,100,680,100,660,100C640,100,620,100,600,100C580,100,560,100,540,100C520,100,500,100,480,100C460,100,440,100,420,100C400,100,380,100,360,100C340,100,320,100,300,100C280,100,260,100,240,100C220,100,200,100,180,100C160,100,140,100,120,100C100,100,80,100,60,100C40,100,20,100,10,100L0,100Z"/></svg>