<?xml version="1.0" standalone="no"?>
<svg xmlns:xlink="http://www.w3.org/1999/xlink" id="wave" style="transform:rotate(0deg); transition: 0.3s" viewBox="0 0 1440 120" version="1.1" xmlns="http://www.w3.org/2000/svg"><defs><linearGradient id="sw-gradient-0" x1="0" x2="0" y1="1" y2="0"><stop stop-color="rgba(26, 22, 106, 1)" offset="0%"/><stop stop-color="rgba(115.649, 112.992, 168.802, 1)" offset="100%"/></linearGradient></defs><path style="transform:translate(0, 0px); opacity:1" fill="url(#sw-gradient-0)" d="M0,108L12,90C24,72,48,36,72,18C96,0,120,0,144,10C168,20,192,40,216,48C240,56,264,52,288,42C312,32,336,16,360,10C384,4,408,8,432,22C456,36,480,60,504,62C528,64,552,44,576,48C600,52,624,80,648,78C672,76,696,44,720,36C744,28,768,44,792,50C816,56,840,52,864,50C888,48,912,48,936,48C960,48,984,48,1008,56C1032,64,1056,80,1080,74C1104,68,1128,40,1152,36C1176,32,1200,52,1224,62C1248,72,1272,72,1296,60C1320,48,1344,24,1368,30C1392,36,1416,72,1440,72C1464,72,1488,36,1512,26C1536,16,1560,32,1584,38C1608,44,1632,40,1656,36C1680,32,1704,28,1716,26L1728,24L1728,120L1716,120C1704,120,1680,120,1656,120C1632,120,1608,120,1584,120C1560,120,1536,120,1512,120C1488,120,1464,120,1440,120C1416,120,1392,120,1368,120C1344,120,1320,120,1296,120C1272,120,1248,120,1224,120C1200,120,1176,120,1152,120C1128,120,1104,120,1080,120C1056,120,1032,120,1008,120C984,120,960,120,936,120C912,120,888,120,864,120C840,120,816,120,792,120C768,120,744,120,720,120C696,120,672,120,648,120C624,120,600,120,576,120C552,120,528,120,504,120C480,120,456,120,432,120C408,120,384,120,360,120C336,120,312,120,288,120C264,120,240,120,216,120C192,120,168,120,144,120C120,120,96,120,72,120C48,120,24,120,12,120L0,120Z"/></svg>