<?xml version="1.0" standalone="no"?><svg xmlns="http://www.w3.org/2000/svg" viewBox="0 0 1440 320"><path fill="#5000ca" fill-opacity="1" d="M0,160L16,144C32,128,64,96,96,74.7C128,53,160,43,192,42.7C224,43,256,53,288,69.3C320,85,352,107,384,96C416,85,448,43,480,37.3C512,32,544,64,576,85.3C608,107,640,117,672,106.7C704,96,736,64,768,48C800,32,832,32,864,74.7C896,117,928,203,960,208C992,213,1024,139,1056,117.3C1088,96,1120,128,1152,133.3C1184,139,1216,117,1248,128C1280,139,1312,181,1344,208C1376,235,1408,245,1424,250.7L1440,256L1440,0L1424,0C1408,0,1376,0,1344,0C1312,0,1280,0,1248,0C1216,0,1184,0,1152,0C1120,0,1088,0,1056,0C1024,0,992,0,960,0C928,0,896,0,864,0C832,0,800,0,768,0C736,0,704,0,672,0C640,0,608,0,576,0C544,0,512,0,480,0C448,0,416,0,384,0C352,0,320,0,288,0C256,0,224,0,192,0C160,0,128,0,96,0C64,0,32,0,16,0L0,0Z"></path></svg>