<?xml version="1.0" standalone="no"?>
<svg xmlns:xlink="http://www.w3.org/1999/xlink" id="wave" style="transform:rotate(0deg); transition: 0.3s" viewBox="0 0 1440 100" version="1.1" xmlns="http://www.w3.org/2000/svg"><defs><linearGradient id="sw-gradient-0" x1="0" x2="0" y1="1" y2="0"><stop stop-color="rgba(255, 255, 255, 1)" offset="0%"/><stop stop-color="rgba(26, 22, 106, 1)" offset="100%"/></linearGradient></defs><path style="transform:translate(0, 0px); opacity:1" fill="url(#sw-gradient-0)" d="M0,10L13.3,20C26.7,30,53,50,80,58.3C106.7,67,133,63,160,58.3C186.7,53,213,47,240,45C266.7,43,293,47,320,45C346.7,43,373,37,400,40C426.7,43,453,57,480,61.7C506.7,67,533,63,560,61.7C586.7,60,613,60,640,60C666.7,60,693,60,720,53.3C746.7,47,773,33,800,35C826.7,37,853,53,880,50C906.7,47,933,23,960,21.7C986.7,20,1013,40,1040,41.7C1066.7,43,1093,27,1120,21.7C1146.7,17,1173,23,1200,26.7C1226.7,30,1253,30,1280,35C1306.7,40,1333,50,1360,46.7C1386.7,43,1413,27,1440,31.7C1466.7,37,1493,63,1520,70C1546.7,77,1573,63,1600,55C1626.7,47,1653,43,1680,46.7C1706.7,50,1733,60,1760,65C1786.7,70,1813,70,1840,65C1866.7,60,1893,50,1907,45L1920,40L1920,100L1906.7,100C1893.3,100,1867,100,1840,100C1813.3,100,1787,100,1760,100C1733.3,100,1707,100,1680,100C1653.3,100,1627,100,1600,100C1573.3,100,1547,100,1520,100C1493.3,100,1467,100,1440,100C1413.3,100,1387,100,1360,100C1333.3,100,1307,100,1280,100C1253.3,100,1227,100,1200,100C1173.3,100,1147,100,1120,100C1093.3,100,1067,100,1040,100C1013.3,100,987,100,960,100C933.3,100,907,100,880,100C853.3,100,827,100,800,100C773.3,100,747,100,720,100C693.3,100,667,100,640,100C613.3,100,587,100,560,100C533.3,100,507,100,480,100C453.3,100,427,100,400,100C373.3,100,347,100,320,100C293.3,100,267,100,240,100C213.3,100,187,100,160,100C133.3,100,107,100,80,100C53.3,100,27,100,13,100L0,100Z"/></svg>